<svg width="30" height="30" viewBox="0 0 30 30" fill="none" xmlns="http://www.w3.org/2000/svg">
<path d="M30 15C30 23.2843 23.2843 30 15 30C6.71571 30 0 23.2843 0 15C0 6.71571 6.71571 0 15 0C23.2843 0 30 6.71571 30 15ZM21.4324 12.8631C21.731 10.8672 20.2112 9.79421 18.133 9.07845L18.8072 6.3747L17.1612 5.96456L16.5049 8.59706C16.0722 8.48921 15.6278 8.38754 15.1862 8.28677L15.8472 5.63698L14.2022 5.22683L13.5276 7.92962C13.1694 7.84802 12.8178 7.7674 12.4766 7.6826L12.4784 7.67413L10.2085 7.1074L9.77063 8.86518C9.77063 8.86518 10.9919 9.14504 10.9661 9.16234C11.6327 9.32873 11.7532 9.76984 11.733 10.1195L10.9651 13.1996C11.0111 13.2114 11.0706 13.2282 11.1362 13.2545C11.0814 13.2409 11.0228 13.2259 10.9623 13.2114L9.88591 17.5262C9.80431 17.7287 9.59758 18.0324 9.13161 17.9171C9.148 17.941 7.93524 17.6185 7.93524 17.6185L7.1181 19.5024L9.26008 20.0363C9.65855 20.1362 10.0491 20.2407 10.4335 20.3391L9.7523 23.0737L11.3964 23.4839L12.0709 20.7783C12.5069 20.8964 12.9442 21.0099 13.3827 21.1186L12.7104 23.8115L14.3563 24.2217L15.0375 21.4922C17.8442 22.0233 19.9548 21.809 20.8431 19.2708C21.559 17.227 20.8075 16.0481 19.3308 15.2794C20.4062 15.0315 21.2163 14.3242 21.4324 12.8631ZM17.6717 18.136C17.163 20.1798 13.7216 19.0749 12.6059 18.7979L13.5097 15.175C14.6254 15.4534 18.2033 16.0046 17.6717 18.136ZM18.1808 12.8336C17.7167 14.6926 14.8523 13.7481 13.9231 13.5166L14.7426 10.2307C15.6718 10.4622 18.6641 10.8944 18.1808 12.8336Z" fill="white"/>
</svg>
