<svg width="42" height="42" viewBox="0 0 42 42" fill="none" xmlns="http://www.w3.org/2000/svg">
<path d="M42 21C42 32.598 32.598 42 21 42C9.40199 42 0 32.598 0 21C0 9.40199 9.40199 0 21 0C32.598 0 42 9.40199 42 21ZM30.0054 18.0083C30.4234 15.2141 28.2956 13.7119 25.3862 12.7098L26.33 8.92458L24.0257 8.35038L23.1069 12.0359C22.5011 11.8849 21.8789 11.7426 21.2606 11.6015L22.1861 7.89177L19.883 7.31757L18.9386 11.1015C18.4372 10.9872 17.9449 10.8744 17.4672 10.7556L17.4698 10.7438L14.2919 9.95036L13.6789 12.4113C13.6789 12.4113 15.3886 12.8031 15.3525 12.8273C16.2858 13.0602 16.4545 13.6778 16.4262 14.1673L15.3512 18.4795C15.4155 18.4959 15.4988 18.5195 15.5907 18.5563C15.5139 18.5372 15.4319 18.5162 15.3472 18.4959L13.8403 24.5366C13.726 24.8201 13.4366 25.2454 12.7843 25.084C12.8072 25.1174 11.1093 24.6659 11.1093 24.6659L9.96535 27.3034L12.9641 28.0508C13.522 28.1906 14.0687 28.337 14.6069 28.4747L13.6532 32.3032L15.9549 32.8774L16.8993 29.0896C17.5097 29.255 18.1219 29.4138 18.7357 29.5661L17.7945 33.3361L20.0989 33.9103L21.0525 30.089C24.9819 30.8326 27.9367 30.5326 29.1803 26.9791C30.1826 24.1178 29.1305 22.4674 27.0631 21.3911C28.5686 21.0441 29.7028 20.0539 30.0054 18.0083ZM24.7404 25.3904C24.0282 28.2517 19.2103 26.7049 17.6482 26.3171L18.9136 21.245C20.4756 21.6347 25.4846 22.4065 24.7404 25.3904ZM25.4531 17.967C24.8034 20.5697 20.7932 19.2473 19.4924 18.9232L20.6396 14.3229C21.9405 14.6471 26.1298 15.2521 25.4531 17.967Z" fill="#84A54B"/>
</svg>
