<svg width="48" height="48" viewBox="0 0 48 48" fill="none" xmlns="http://www.w3.org/2000/svg">
<path d="M24 16.2637C19.7402 16.2637 16.2638 19.7401 16.2638 23.9999C16.2638 28.2597 19.7402 31.736 24 31.736C28.2598 31.736 31.7362 28.2597 31.7362 23.9999C31.7362 19.7401 28.2598 16.2637 24 16.2637ZM47.2027 23.9999C47.2027 20.7963 47.2317 17.6217 47.0518 14.424C46.8719 10.7097 46.0246 7.41326 43.3085 4.69719C40.5866 1.97532 37.296 1.1338 33.5817 0.953889C30.3781 0.773978 27.2036 0.802996 24.0058 0.802996C20.8022 0.802996 17.6277 0.773978 14.4299 0.953889C10.7156 1.1338 7.41919 1.98112 4.70312 4.69719C1.98125 7.41907 1.13973 10.7097 0.959817 14.424C0.779906 17.6276 0.808924 20.8021 0.808924 23.9999C0.808924 27.1976 0.779906 30.378 0.959817 33.5758C1.13973 37.2901 1.98705 40.5865 4.70312 43.3026C7.425 46.0244 10.7156 46.8659 14.4299 47.0459C17.6335 47.2258 20.808 47.1968 24.0058 47.1968C27.2094 47.1968 30.3839 47.2258 33.5817 47.0459C37.296 46.8659 40.5924 46.0186 43.3085 43.3026C46.0304 40.5807 46.8719 37.2901 47.0518 33.5758C47.2375 30.378 47.2027 27.2034 47.2027 23.9999ZM24 35.903C17.4129 35.903 12.0969 30.5869 12.0969 23.9999C12.0969 17.4128 17.4129 12.0967 24 12.0967C30.587 12.0967 35.9031 17.4128 35.9031 23.9999C35.9031 30.5869 30.587 35.903 24 35.903ZM36.3906 14.3892C34.8527 14.3892 33.6107 13.1472 33.6107 11.6092C33.6107 10.0713 34.8527 8.82934 36.3906 8.82934C37.9286 8.82934 39.1705 10.0713 39.1705 11.6092C39.171 11.9744 39.0994 12.3361 38.9599 12.6736C38.8203 13.0111 38.6156 13.3177 38.3573 13.576C38.0991 13.8342 37.7925 14.0389 37.455 14.1785C37.1175 14.318 36.7558 14.3896 36.3906 14.3892Z" fill="black"/>
</svg>
