<svg width="51" height="51" viewBox="0 0 51 51" fill="none" xmlns="http://www.w3.org/2000/svg">
<path d="M47.2893 0H4.41795C2.45352 0 0.857422 1.61842 0.857422 3.60517V46.3984C0.857422 48.3852 2.45352 50.0036 4.41795 50.0036H47.2893C49.2538 50.0036 50.861 48.3852 50.861 46.3984V3.60517C50.861 1.61842 49.2538 0 47.2893 0ZM15.9701 42.8602H8.55887V18.9969H15.9813V42.8602H15.9701ZM12.2645 15.7377C9.88709 15.7377 7.96731 13.8068 7.96731 11.4406C7.96731 9.07431 9.88709 7.14337 12.2645 7.14337C14.6307 7.14337 16.5617 9.07431 16.5617 11.4406C16.5617 13.818 14.6419 15.7377 12.2645 15.7377ZM43.7511 42.8602H36.3399V31.2522C36.3399 28.4842 36.2841 24.9237 32.4892 24.9237C28.6273 24.9237 28.0357 27.9373 28.0357 31.0513V42.8602H20.6245V18.9969H27.7344V22.2561H27.8348C28.8282 20.3809 31.2502 18.4053 34.8554 18.4053C42.3559 18.4053 43.7511 23.3499 43.7511 29.7789V42.8602Z" fill="black"/>
</svg>
