<svg width="35" height="35" viewBox="0 0 35 35" fill="none" xmlns="http://www.w3.org/2000/svg">
<path d="M33.6841 29.5286L27.034 22.8785C26.7338 22.5783 26.327 22.4116 25.9001 22.4116H24.8128C26.6538 20.057 27.7477 17.0955 27.7477 13.8738C27.7477 6.20988 21.5378 0 13.8738 0C6.20988 0 0 6.20988 0 13.8738C0 21.5378 6.20988 27.7477 13.8738 27.7477C17.0955 27.7477 20.057 26.6538 22.4116 24.8128V25.9001C22.4116 26.327 22.5783 26.7338 22.8785 27.034L29.5286 33.6841C30.1556 34.3111 31.1695 34.3111 31.7898 33.6841L33.6774 31.7965C34.3044 31.1695 34.3044 30.1556 33.6841 29.5286ZM13.8738 22.4116C9.15807 22.4116 5.33609 18.5963 5.33609 13.8738C5.33609 9.15807 9.1514 5.33609 13.8738 5.33609C18.5896 5.33609 22.4116 9.1514 22.4116 13.8738C22.4116 18.5896 18.5963 22.4116 13.8738 22.4116Z" fill="#2E4010"/>
</svg>
