<svg width="53" height="42" viewBox="0 0 53 42" fill="none" xmlns="http://www.w3.org/2000/svg">
<path d="M47.4242 10.3084C47.4578 10.7608 47.4578 11.2132 47.4578 11.6656C47.4578 25.464 36.5576 41.3629 16.6354 41.3629C10.4977 41.3629 4.7961 39.6502 0 36.6773C0.872047 36.7742 1.71044 36.8065 2.61604 36.8065C7.68035 36.8065 12.3424 35.1585 16.0652 32.3471C11.3026 32.2502 7.31148 29.2449 5.93636 25.1086C6.6072 25.2055 7.27793 25.2701 7.98232 25.2701C8.95492 25.2701 9.92763 25.1408 10.8331 24.9147C5.86936 23.9452 2.14641 19.7443 2.14641 14.6709V14.5417C3.58853 15.3172 5.26563 15.802 7.04307 15.8665C4.12516 13.9922 2.21351 10.7931 2.21351 7.17381C2.21351 5.23496 2.75004 3.45764 3.68919 1.90652C9.02192 8.24022 17.0378 12.3764 26.0262 12.8289C25.8585 12.0534 25.7579 11.2456 25.7579 10.4377C25.7579 4.68559 30.5875 0 36.591 0C39.7101 0 42.5273 1.26027 44.5062 3.29611C46.9545 2.84372 49.3022 1.97118 51.3817 0.77556C50.5767 3.19922 48.8662 5.23506 46.6192 6.52756C48.7992 6.30146 50.9122 5.71967 52.8574 4.91188C51.3819 6.97994 49.5372 8.82181 47.4242 10.3084Z" fill="black"/>
</svg>
