<svg width="35" height="35" viewBox="0 0 35 35" fill="none" xmlns="http://www.w3.org/2000/svg">
<path d="M28.8128 21.3428H26.6785C26.3955 21.3428 26.1241 21.4552 25.9239 21.6554C25.7238 21.8555 25.6114 22.1269 25.6114 22.41V29.8799H4.26856V8.53713H13.8728C14.1559 8.53713 14.4273 8.4247 14.6274 8.22457C14.8275 8.02444 14.94 7.75301 14.94 7.46999V5.3357C14.94 5.05268 14.8275 4.78125 14.6274 4.58112C14.4273 4.38099 14.1559 4.26856 13.8728 4.26856H3.20142C2.35235 4.26856 1.53806 4.60585 0.937675 5.20624C0.337292 5.80662 0 6.62092 0 7.46999L0 30.9471C0 31.7962 0.337292 32.6104 0.937675 33.2108C1.53806 33.8112 2.35235 34.1485 3.20142 34.1485H26.6785C27.5276 34.1485 28.3419 33.8112 28.9423 33.2108C29.5427 32.6104 29.8799 31.7962 29.8799 30.9471V22.41C29.8799 22.1269 29.7675 21.8555 29.5674 21.6554C29.3673 21.4552 29.0958 21.3428 28.8128 21.3428ZM32.5478 0H24.0107C22.5854 0 21.8731 1.7281 22.8768 2.73455L25.2599 5.11761L9.004 21.3675C8.85477 21.5162 8.73637 21.6929 8.65557 21.8875C8.57478 22.0821 8.5332 22.2907 8.5332 22.5013C8.5332 22.712 8.57478 22.9206 8.65557 23.1152C8.73637 23.3097 8.85477 23.4865 9.004 23.6352L10.516 25.1445C10.6647 25.2937 10.8414 25.4121 11.036 25.4929C11.2306 25.5737 11.4392 25.6153 11.6498 25.6153C11.8605 25.6153 12.0691 25.5737 12.2637 25.4929C12.4583 25.4121 12.635 25.2937 12.7837 25.1445L29.0316 8.89195L31.414 11.2717C32.4144 12.2721 34.1485 11.5718 34.1485 10.1378V1.60071C34.1485 1.17618 33.9799 0.769029 33.6797 0.468837C33.3795 0.168646 32.9723 0 32.5478 0Z" fill="white"/>
</svg>
